<?xml version="1.0" standalone="no"?>
<!DOCTYPE svg PUBLIC "-//W3C//DTD SVG 20010904//EN"
 "http://www.w3.org/TR/2001/REC-SVG-20010904/DTD/svg10.dtd">
<svg version="1.0" xmlns="http://www.w3.org/2000/svg"
 width="793.000000pt" height="793.000000pt" viewBox="0 0 793.000000 793.000000"
 preserveAspectRatio="xMidYMid meet">
<metadata>
Created by potrace 1.11, written by Peter Selinger 2001-2013
</metadata>
<g transform="translate(0.000000,793.000000) scale(0.100000,-0.100000)"
fill="#000000" stroke="none">
<path d="M0 3965 l0 -3965 3965 0 3965 0 0 1440 0 1440 -229 0 c-216 0 -230
-1 -255 -21 l-26 -20 0 -380 0 -379 48 0 c87 -1 179 -60 225 -145 22 -39 22
-49 22 -435 0 -387 0 -396 -22 -436 -26 -48 -91 -110 -142 -132 -27 -13 -67
-17 -166 -17 -122 0 -133 2 -187 28 -64 31 -101 70 -132 137 -20 43 -21 61
-21 415 0 400 1 409 55 484 42 58 109 93 189 100 l66 6 5 385 c6 428 4 421 73
454 29 13 72 16 266 16 l231 0 0 132 0 131 -2555 -7 -2555 -7 0 40 c0 28 8 48
26 70 24 29 30 31 95 31 l68 0 10 38 c6 20 28 112 50 203 22 91 43 174 47 183
6 15 -69 16 -958 16 l-965 0 -34 23 c-63 42 -69 67 -69 295 l0 202 2715 0
2715 0 0 -202 c0 -228 -6 -253 -69 -295 l-34 -23 -958 0 c-681 0 -959 -3 -959
-11 0 -6 23 -105 51 -220 l51 -209 68 0 c67 0 70 -1 97 -35 l28 -35 1568 0
1567 0 0 2335 0 2335 -3965 0 -3965 0 0 -3965z m4015 3005 c3 -5 1 -10 -4 -10
-6 0 -11 5 -11 10 0 6 2 10 4 10 3 0 8 -4 11 -10z m0 -350 c3 -5 1 -10 -4 -10
-6 0 -11 5 -11 10 0 6 2 10 4 10 3 0 8 -4 11 -10z m-3 -82 c-8 -8 -9 -4 -5 13
4 13 8 18 11 10 2 -7 -1 -18 -6 -23z m48 -38 c0 -5 -2 -10 -4 -10 -3 0 -8 5
-11 10 -3 6 -1 10 4 10 6 0 11 -4 11 -10z m107 -122 c-3 -8 -6 -5 -6 6 -1 11
2 17 5 13 3 -3 4 -12 1 -19z m-309 -293 c-3 -3 -9 2 -12 12 -6 14 -5 15 5 6 7
-7 10 -15 7 -18z m7 -55 c3 -5 1 -10 -4 -10 -6 0 -11 5 -11 10 0 6 2 10 4 10
3 0 8 -4 11 -10z m195 -121 c0 -5 -4 -9 -8 -9 -5 0 -9 7 -9 15 0 8 4 12 9 9 4
-3 8 -9 8 -15z m35 11 c3 -5 1 -10 -4 -10 -6 0 -11 5 -11 10 0 6 2 10 4 10 3
0 8 -4 11 -10z m235 -350 c0 -5 -4 -10 -10 -10 -5 0 -10 5 -10 10 0 6 5 10 10
10 6 0 10 -4 10 -10z m2002 -2857 c17 -15 18 -58 18 -951 0 -856 -1 -937 -17
-954 -15 -17 -37 -18 -280 -18 -144 0 -263 -4 -263 -9 0 -21 55 -104 72 -109
15 -4 78 -97 78 -115 0 -4 -118 -77 -262 -163 -145 -86 -295 -176 -335 -200
l-72 -43 -36 58 c-19 33 -33 65 -30 73 3 8 -10 42 -30 76 l-37 61 -68 -6 c-62
-5 -95 1 -338 62 l-270 67 -74 122 -73 121 -550 3 -550 2 -65 -110 c-57 -97
-69 -111 -100 -119 -19 -6 -136 -35 -259 -66 -192 -48 -237 -56 -305 -54 l-80
2 -38 -61 c-21 -34 -35 -68 -32 -76 6 -16 -56 -128 -68 -124 -21 8 -667 394
-668 400 -1 18 67 117 77 113 11 -4 63 70 63 88 0 4 -101 7 -224 7 -221 0
-225 0 -240 22 -14 20 -16 127 -16 950 0 915 0 928 20 948 20 20 33 20 2527
20 2318 0 2508 -1 2525 -17z"/>
<path d="M1374 2435 c0 -71 1 -99 3 -62 2 37 2 96 0 130 -2 34 -3 4 -3 -68z"/>
<path d="M2684 2430 c0 -69 1 -97 3 -62 2 34 2 90 0 125 -2 34 -3 6 -3 -63z"/>
<path d="M2078 2283 c7 -3 16 -2 19 1 4 3 -2 6 -13 5 -11 0 -14 -3 -6 -6z"/>
<path d="M1374 2095 c0 -71 1 -99 3 -62 2 37 2 96 0 130 -2 34 -3 4 -3 -68z"/>
<path d="M1374 1760 c0 -74 1 -105 3 -67 2 37 2 97 0 135 -2 37 -3 6 -3 -68z"/>
<path d="M1374 1425 c0 -71 1 -99 3 -62 2 37 2 96 0 130 -2 34 -3 4 -3 -68z"/>
<path d="M1794 1425 c0 -71 1 -99 3 -62 2 37 2 96 0 130 -2 34 -3 4 -3 -68z"/>
<path d="M3784 1425 c0 -71 1 -99 3 -62 2 37 2 96 0 130 -2 34 -3 4 -3 -68z"/>
<path d="M1374 1060 c0 -85 2 -120 3 -77 2 42 2 112 0 155 -1 42 -3 7 -3 -78z"/>
<path d="M2869 773 c-13 -15 -11 -16 11 -10 14 4 31 7 38 7 6 0 12 5 12 10 0
16 -46 11 -61 -7z"/>
<path d="M4602 768 c14 -20 66 -43 76 -33 3 2 -3 16 -12 30 -12 18 -25 25 -47
25 -30 0 -31 -1 -17 -22z"/>
<path d="M7334 1875 c-50 -35 -58 -143 -13 -191 32 -34 91 -33 124 2 21 22 25
37 25 86 0 52 -3 63 -29 89 -33 32 -74 38 -107 14z"/>
</g>
</svg>
